<svg width="10" height="10" viewBox="0 0 10 10" fill="none" xmlns="http://www.w3.org/2000/svg">
<g opacity="0.75">
<path fill-rule="evenodd" clip-rule="evenodd" d="M1.08227 8.51857C0.972578 8.62866 0.972578 8.80801 1.08227 8.91836C1.19161 9.02836 1.36988 9.02836 1.47965 8.9113L5 5.36938L8.52035 8.9113C8.63012 9.02836 8.80839 9.02836 8.91774 8.91836C9.02742 8.80801 9.02742 8.62866 8.91774 8.51857L5.41744 5.00388L8.91774 1.48255C9.02742 1.37211 9.02742 1.19277 8.91774 1.08276C8.80839 0.972413 8.63012 0.972413 8.52035 1.08276L5 4.62434L1.47965 1.08276C1.36988 0.972413 1.19161 0.972413 1.08227 1.08276C0.972578 1.19277 0.972578 1.37211 1.08227 1.48255L4.58256 5.00388L1.08227 8.51857Z" fill="#255CA8"/>
<path d="M1.08227 8.91836L1.38369 8.61874L1.38369 8.61874L1.08227 8.91836ZM1.08227 8.51857L1.38334 8.81854L1.3834 8.81848L1.08227 8.51857ZM1.47965 8.9113L1.17809 8.61157L1.16963 8.62059L1.47965 8.9113ZM5 5.36938L5.30144 5.06978L5 4.7665L4.69856 5.06978L5 5.36938ZM8.52035 8.9113L8.8305 8.62047L8.82178 8.61169L8.52035 8.9113ZM8.91774 8.91836L8.61631 8.61874L8.61631 8.61874L8.91774 8.91836ZM8.91774 8.51857L8.6166 8.81848L8.61666 8.81854L8.91774 8.51857ZM5.41744 5.00388L5.11602 4.70426L4.81791 5.00416L5.1163 5.30378L5.41744 5.00388ZM8.91774 1.48255L9.21915 1.78217L9.21927 1.78205L8.91774 1.48255ZM8.91774 1.08276L8.61584 1.38191L8.61678 1.38285L8.91774 1.08276ZM8.52035 1.08276L8.21904 0.783029L8.21892 0.783146L8.52035 1.08276ZM5 4.62434L4.69858 4.92396L5 5.2272L5.30142 4.92396L5 4.62434ZM1.47965 1.08276L1.78108 0.783146L1.78096 0.783028L1.47965 1.08276ZM1.08227 1.08276L1.38322 1.38285L1.38416 1.3819L1.08227 1.08276ZM1.08227 1.48255L0.780725 1.78205L0.780846 1.78217L1.08227 1.48255ZM4.58256 5.00388L4.8837 5.30378L5.18209 5.00416L4.88398 4.70426L4.58256 5.00388ZM1.38369 8.61874C1.43858 8.67396 1.43908 8.76259 1.38334 8.81854L0.781194 8.2186C0.506075 8.49473 0.506579 8.94206 0.780842 9.21797L1.38369 8.61874ZM1.16963 8.62059C1.2257 8.5608 1.32476 8.55946 1.38369 8.61874L0.780842 9.21797C1.05846 9.49727 1.51407 9.49593 1.78968 9.202L1.16963 8.62059ZM4.69856 5.06978L1.17822 8.61169L1.78109 9.2109L5.30144 5.66899L4.69856 5.06978ZM4.69856 5.66899L8.21891 9.2109L8.82178 8.61169L5.30144 5.06978L4.69856 5.66899ZM8.21032 9.202C8.48593 9.49593 8.94154 9.49727 9.21916 9.21797L8.61631 8.61874C8.67524 8.55946 8.7743 8.5608 8.83037 8.62059L8.21032 9.202ZM9.21916 9.21797C9.49342 8.94206 9.49393 8.49473 9.21881 8.2186L8.61666 8.81854C8.56092 8.76259 8.56142 8.67396 8.61631 8.61874L9.21916 9.21797ZM9.21887 8.21867L5.71857 4.70397L5.1163 5.30378L8.6166 8.81848L9.21887 8.21867ZM5.71886 5.3035L9.21915 1.78217L8.61632 1.18293L5.11602 4.70426L5.71886 5.3035ZM9.21927 1.78205C9.49325 1.5062 9.49409 1.05888 9.21869 0.782675L8.61678 1.38285C8.56075 1.32666 8.56159 1.23803 8.6162 1.18305L9.21927 1.78205ZM9.21963 0.783617C8.94368 0.505134 8.49464 0.505984 8.21904 0.783029L8.82165 1.38249C8.7656 1.43884 8.67311 1.43969 8.61584 1.38191L9.21963 0.783617ZM8.21892 0.783146L4.69858 4.32473L5.30142 4.92396L8.82177 1.38238L8.21892 0.783146ZM1.17823 1.38238L4.69858 4.92396L5.30142 4.32473L1.78108 0.783146L1.17823 1.38238ZM1.38416 1.3819C1.32689 1.43969 1.2344 1.43884 1.17835 1.38249L1.78096 0.783028C1.50536 0.505984 1.05632 0.505134 0.780374 0.783618L1.38416 1.3819ZM1.3838 1.18305C1.43841 1.23803 1.43925 1.32666 1.38322 1.38285L0.781311 0.782675C0.505907 1.05888 0.506747 1.5062 0.780725 1.78205L1.3838 1.18305ZM4.88398 4.70426L1.38368 1.18293L0.780846 1.78217L4.28114 5.3035L4.88398 4.70426ZM1.3834 8.81848L4.8837 5.30378L4.28143 4.70397L0.781128 8.21867L1.3834 8.81848Z" fill="#255CA8"/>
</g>
</svg>