<?xml version="1.0" encoding="UTF-8"?>
<svg width="74px" height="74px" viewBox="0 0 74 74" version="1.1" xmlns="http://www.w3.org/2000/svg" xmlns:xlink="http://www.w3.org/1999/xlink">
    <!-- Generator: sketchtool 52.6 (67491) - http://www.bohemiancoding.com/sketch -->
    <title>6C98429F-36CB-4636-87C4-E0DE104D07F1</title>
    <desc>Created with sketchtool.</desc>
    <defs>
        <polygon id="path-1" points="0 0.0651912226 39.9972414 0.0651912226 39.9972414 29.9686395 0 29.9686395"></polygon>
        <polygon id="path-3" points="0.124037618 0.00117868339 8.27310345 0.00117868339 8.27310345 3.97371787 0.124037618 3.97371787"></polygon>
        <polygon id="path-5" points="0 34.178558 39.9972414 34.178558 39.9972414 0 0 0"></polygon>
    </defs>
    <g id="Page-1" stroke="none" stroke-width="1" fill="none" fill-rule="evenodd">
        <g id="8" transform="translate(-375.000000, -201.000000)">
            <g id="Group-2" transform="translate(335.000000, 161.000000)">
                <g id="Group-3" transform="translate(40.000000, 40.000000)">
                    <rect id="Rectangle" fill="#255CA8" opacity="0.15" x="0" y="0" width="74" height="74" rx="4"></rect>
                    <g id="Group-17" transform="translate(17.000000, 19.000000)">
                        <path d="M27.4385078,4.72315987 L25.6830219,4.72315987 L25.6830219,2.99475862 C25.6830219,2.31149843 25.1270345,1.75551097 24.4437743,1.75551097 L15.5533668,1.75551097 C14.8701066,1.75551097 14.3142445,2.31149843 14.3142445,2.99475862 L14.3142445,4.2750094 L12.5587586,4.2750094 L12.5587586,2.99475862 C12.5587586,1.34347335 13.9020815,2.50783699e-05 15.5533668,2.50783699e-05 L24.4437743,2.50783699e-05 C26.0950596,2.50783699e-05 27.4385078,1.34347335 27.4385078,2.99475862 L27.4385078,4.72315987 Z" id="Fill-1" fill="#212A39"></path>
                        <g id="Group-5" transform="translate(0.000000, 4.209906)">
                            <mask id="mask-2" fill="white">
                                <use xlink:href="#path-1"></use>
                            </mask>
                            <g id="Clip-4"></g>
                            <path d="M38.4137179,29.9686395 L1.58349843,29.9686395 C0.712526646,29.9686395 -7.52351097e-05,29.2560376 -7.52351097e-05,28.3850658 L-7.52351097e-05,1.6486395 C-7.52351097e-05,0.777667712 0.712526646,0.0651912226 1.58349843,0.0651912226 L38.4137179,0.0651912226 C39.2846897,0.0651912226 39.9972915,0.777667712 39.9972915,1.6486395 L39.9972915,28.3850658 C39.9972915,29.2560376 39.2846897,29.9686395 38.4137179,29.9686395" id="Fill-3" fill="#255CA8" mask="url(#mask-2)"></path>
                        </g>
                        <g id="Group-8" transform="translate(31.724138, 15.244389)">
                            <mask id="mask-4" fill="white">
                                <use xlink:href="#path-3"></use>
                            </mask>
                            <g id="Clip-7"></g>
                            <path d="M1.97256426,3.97371787 L0.124037618,3.97371787 L0.124037618,2.71979937 L1.97256426,2.71979937 C4.18234483,2.71979937 6.70472727,1.55816928 8.27312853,0.00117868339 L8.27312853,1.49810658 C6.46836364,3.28970533 4.51551097,3.97371787 1.97256426,3.97371787" id="Fill-6" fill="#FFFFFF" mask="url(#mask-4)"></path>
                        </g>
                        <path d="M28.3371787,19.2181066 L6.33442006,19.2181066 C3.79134796,19.2181066 0,16.8221191 0,16.8221191 L0,15.2298934 C0,15.2298934 4.12451411,17.9641881 6.33442006,17.9641881 L28.3371787,17.9641881 L28.3371787,19.2181066 Z" id="Fill-9" fill="#FFFFFF"></path>
                        <path d="M20.7872226,22.9171661 L19.2099185,22.9171661 C18.2648401,22.9171661 17.4914232,22.1438746 17.4914232,21.1986708 L17.4914232,18.1372288 C17.4914232,17.1921505 18.2648401,16.4187335 19.2099185,16.4187335 L20.7872226,16.4187335 C21.7324263,16.4187335 22.5058433,17.1921505 22.5058433,18.1372288 L22.5058433,21.1986708 C22.5058433,22.1438746 21.7324263,22.9171661 20.7872226,22.9171661" id="Fill-11" fill="#FFFFFF"></path>
                        <mask id="mask-6" fill="white">
                            <use xlink:href="#path-5"></use>
                        </mask>
                        <g id="Clip-16"></g>
                        <polygon id="Fill-15" fill="#FFFFFF" mask="url(#mask-6)" points="28.3371787 19.2180564 31.8481505 19.2180564 31.8481505 17.9641379 28.3371787 17.9641379"></polygon>
                    </g>
                </g>
            </g>
        </g>
    </g>
</svg>